<svg width="107" height="30" viewBox="0 0 107 30" fill="none" xmlns="http://www.w3.org/2000/svg">
<path d="M14.52 8.864H9.072V23H5.784V8.864H0.336V5.96H14.52V8.864ZM19.7642 23.24C18.7402 23.24 17.8202 23.072 17.0042 22.736C16.1882 22.384 15.4922 21.904 14.9162 21.296C14.3562 20.688 13.9242 19.992 13.6202 19.208C13.3162 18.424 13.1642 17.6 13.1642 16.736C13.1642 15.856 13.3162 15.024 13.6202 14.24C13.9242 13.456 14.3562 12.76 14.9162 12.152C15.4922 11.544 16.1882 11.072 17.0042 10.736C17.8202 10.384 18.7402 10.208 19.7642 10.208C20.7882 10.208 21.7002 10.384 22.5002 10.736C23.3162 11.072 24.0122 11.544 24.5882 12.152C25.1642 12.76 25.5962 13.456 25.8842 14.24C26.1882 15.024 26.3402 15.856 26.3402 16.736C26.3402 17.6 26.1882 18.424 25.8842 19.208C25.5962 19.992 25.1642 20.688 24.5882 21.296C24.0282 21.904 23.3402 22.384 22.5242 22.736C21.7082 23.072 20.7882 23.24 19.7642 23.24ZM16.4762 16.736C16.4762 17.472 16.6202 18.128 16.9082 18.704C17.1962 19.264 17.5882 19.704 18.0842 20.024C18.5802 20.344 19.1402 20.504 19.7642 20.504C20.3722 20.504 20.9242 20.344 21.4202 20.024C21.9162 19.688 22.3082 19.24 22.5962 18.68C22.9002 18.104 23.0522 17.448 23.0522 16.712C23.0522 15.992 22.9002 15.344 22.5962 14.768C22.3082 14.192 21.9162 13.744 21.4202 13.424C20.9242 13.104 20.3722 12.944 19.7642 12.944C19.1402 12.944 18.5802 13.112 18.0842 13.448C17.5882 13.768 17.1962 14.216 16.9082 14.792C16.6202 15.352 16.4762 16 16.4762 16.736ZM37.1029 23L33.4309 17.576L31.7269 19.256V23H28.5109V5.48H31.7269V16.088L36.7909 10.448H40.1989L35.5189 15.776L40.5349 23H37.1029ZM47.0694 23.24C46.0614 23.24 45.1494 23.072 44.3334 22.736C43.5174 22.384 42.8214 21.912 42.2454 21.32C41.6694 20.712 41.2214 20.024 40.9014 19.256C40.5974 18.472 40.4454 17.648 40.4454 16.784C40.4454 15.584 40.7094 14.488 41.2374 13.496C41.7814 12.504 42.5494 11.712 43.5414 11.12C44.5494 10.512 45.7334 10.208 47.0934 10.208C48.4694 10.208 49.6454 10.512 50.6214 11.12C51.5974 11.712 52.3414 12.504 52.8534 13.496C53.3814 14.472 53.6454 15.528 53.6454 16.664C53.6454 16.856 53.6374 17.056 53.6214 17.264C53.6054 17.456 53.5894 17.616 53.5734 17.744H43.8534C43.9174 18.384 44.1014 18.944 44.4054 19.424C44.7254 19.904 45.1254 20.272 45.6054 20.528C46.1014 20.768 46.6294 20.888 47.1894 20.888C47.8294 20.888 48.4294 20.736 48.9894 20.432C49.5654 20.112 49.9574 19.696 50.1654 19.184L52.9254 19.952C52.6214 20.592 52.1814 21.16 51.6054 21.656C51.0454 22.152 50.3814 22.544 49.6134 22.832C48.8454 23.104 47.9974 23.24 47.0694 23.24ZM43.7814 15.704H50.3574C50.2934 15.064 50.1094 14.512 49.8054 14.048C49.5174 13.568 49.1334 13.2 48.6534 12.944C48.1734 12.672 47.6374 12.536 47.0454 12.536C46.4694 12.536 45.9414 12.672 45.4614 12.944C44.9974 13.2 44.6134 13.568 44.3094 14.048C44.0214 14.512 43.8454 15.064 43.7814 15.704ZM67.2926 23H64.0766V15.944C64.0766 14.936 63.9006 14.2 63.5486 13.736C63.1966 13.272 62.7086 13.04 62.0846 13.04C61.6526 13.04 61.2126 13.152 60.7646 13.376C60.3326 13.6 59.9406 13.912 59.5886 14.312C59.2366 14.696 58.9806 15.144 58.8206 15.656V23H55.6046V10.424H58.5086V12.752C58.8286 12.208 59.2366 11.752 59.7326 11.384C60.2286 11 60.7966 10.712 61.4366 10.52C62.0926 10.312 62.7806 10.208 63.5006 10.208C64.2846 10.208 64.9246 10.352 65.4206 10.64C65.9326 10.912 66.3166 11.288 66.5726 11.768C66.8446 12.232 67.0286 12.76 67.1246 13.352C67.2366 13.944 67.2926 14.544 67.2926 15.152V23Z" fill="black"/>
<path d="M83.145 8.864H77.697V23H74.409V8.864H68.961V5.96H83.145V8.864ZM85.8874 10.424L88.5274 14.36L88.7194 14.792L88.9594 14.36L91.5754 10.424H94.9594L90.5914 16.688L95.0314 23H91.6474L88.9354 19.088L88.7194 18.68L88.5274 19.088L85.8394 23H82.4554L86.8954 16.76L82.5274 10.424H85.8874Z" fill="#514DB4"/>
</svg>
